<svg xmlns="http://www.w3.org/2000/svg" xmlns:xlink="http://www.w3.org/1999/xlink" preserveAspectRatio="xMidYMid" width="61" height="84" viewBox="0 0 61 84">
  <defs>
    <style>

      .cls-3 {
        fill: #999999;
      }

      .cls-4 {
        fill: #91c123;
      }

      .cls-5 {
        fill: #cccccc;
      }
    </style>
  </defs>
  <g id="app">
    <path d="M53.000,83.056 C53.000,83.056 8.010,83.056 8.010,83.056 C3.592,83.056 0.010,79.474 0.010,75.056 C0.010,75.056 0.010,8.015 0.010,8.015 C0.010,3.597 3.592,0.016 8.010,0.016 C8.010,0.016 53.000,0.016 53.000,0.016 C57.418,0.016 61.000,3.597 61.000,8.015 C61.000,8.015 61.000,75.056 61.000,75.056 C61.000,79.474 57.418,83.056 53.000,83.056 ZM30.781,79.031 C32.214,79.031 33.375,77.870 33.375,76.437 C33.375,75.005 32.214,73.969 30.781,73.969 C29.349,73.969 28.187,75.005 28.187,76.437 C28.187,77.870 29.349,79.031 30.781,79.031 ZM55.000,12.000 C55.000,8.686 52.314,6.000 49.000,6.000 C49.000,6.000 11.000,6.000 11.000,6.000 C7.686,6.000 5.000,8.686 5.000,12.000 C5.000,12.000 5.000,65.031 5.000,65.031 C5.000,68.345 7.686,71.031 11.000,71.031 C11.000,71.031 49.000,71.031 49.000,71.031 C52.314,71.031 55.000,68.345 55.000,65.031 C55.000,65.031 55.000,12.000 55.000,12.000 Z" id="path-1" class="cls-3" fill-rule="evenodd"/>
    <ellipse id="ellipse-1" class="cls-4" cx="30" cy="32" rx="14" ry="15"/>
    <rect id="rect-1" class="cls-5" x="19" y="53" width="22" height="7"/>
  </g>
</svg>
