<svg xmlns="http://www.w3.org/2000/svg" xmlns:xlink="http://www.w3.org/1999/xlink" preserveAspectRatio="xMidYMid" width="31" height="60" viewBox="0 0 31 60">
  <defs>
    <style>

      .cls-3 {
        fill: #999999;
      }

      .cls-4 {
        fill: #99cc33;
      }

      .cls-5 {
        fill: #ffffff;
      }
    </style>
  </defs>
  <g id="cashmansvg">
    <path d="M21.988,20.512 C21.988,20.512 21.988,37.926 21.988,37.926 C21.988,37.926 19.121,37.978 19.121,37.978 C19.121,37.978 19.012,35.910 19.012,35.910 C19.012,35.910 18.229,35.917 18.229,35.917 C18.229,35.917 17.924,39.035 17.924,39.035 C17.924,39.035 13.089,38.986 13.089,38.986 C13.089,38.986 12.362,36.574 11.656,36.067 C11.283,36.163 11.592,36.354 11.344,36.625 C11.344,36.625 9.933,37.287 10.020,40.558 C10.019,40.586 10.017,40.605 10.017,40.633 C9.989,43.276 9.889,47.152 9.573,50.680 C9.184,55.023 8.094,58.937 8.094,58.937 C8.094,58.937 4.004,58.961 4.004,58.961 C4.004,58.961 4.117,37.254 4.117,37.254 C-0.719,36.809 0.031,30.187 0.031,30.187 C0.031,30.187 0.039,20.746 0.039,20.746 C0.031,15.230 6.180,15.027 6.180,15.027 C6.180,15.027 16.957,14.996 16.957,14.996 C22.133,14.996 21.988,20.512 21.988,20.512 ZM11.531,12.937 C7.959,12.937 5.062,10.041 5.062,6.469 C5.062,2.896 7.959,-0.000 11.531,-0.000 C15.104,-0.000 18.000,2.896 18.000,6.469 C18.000,10.041 15.104,12.937 11.531,12.937 ZM17.961,58.984 C17.961,58.984 13.930,59.031 13.930,59.031 C13.930,59.031 13.245,55.023 13.245,55.023 C13.245,55.023 17.974,54.968 17.974,54.968 C17.974,54.968 17.961,58.984 17.961,58.984 Z" id="path-1" class="cls-3" fill-rule="evenodd"/>
    <path d="M29.031,54.000 C29.031,54.000 14.070,54.000 14.070,54.000 C12.966,54.000 12.070,53.104 12.070,52.000 C12.070,52.000 12.070,42.004 12.070,42.004 C12.070,40.899 12.966,40.004 14.070,40.004 C14.070,40.004 19.016,40.004 19.016,40.004 C19.016,40.004 19.016,38.969 19.016,38.969 C19.016,38.969 21.976,38.969 21.976,38.969 C21.976,38.969 22.050,40.004 22.050,40.004 C22.050,40.004 29.031,40.004 29.031,40.004 C30.136,40.004 31.031,40.899 31.031,42.004 C31.031,42.004 31.031,52.000 31.031,52.000 C31.031,53.104 30.136,54.000 29.031,54.000 Z" id="path-2" class="cls-4" fill-rule="evenodd"/>
    <path d="M20.050,52.991 C20.050,52.991 22.041,52.970 22.041,52.970 C22.041,52.970 22.009,51.358 22.009,51.358 C22.559,51.290 23.153,51.196 23.529,51.042 C23.905,50.889 24.211,50.706 24.447,50.493 C24.683,50.280 24.851,50.049 24.952,49.798 C25.053,49.547 25.104,49.294 25.104,49.038 C25.104,48.664 25.017,48.336 24.843,48.055 C24.669,47.774 24.427,47.530 24.119,47.321 C23.810,47.113 23.445,46.927 23.024,46.765 C22.603,46.603 22.146,46.454 21.652,46.317 C21.326,46.232 21.048,46.153 20.819,46.080 C20.588,46.008 20.395,45.933 20.238,45.857 C20.080,45.780 19.965,45.693 19.892,45.595 C19.819,45.497 19.783,45.380 19.783,45.244 C19.783,45.022 19.901,44.843 20.137,44.707 C20.372,44.571 20.760,44.503 21.298,44.503 C21.837,44.503 22.351,44.545 22.839,44.630 C23.327,44.716 23.757,44.818 24.127,44.937 C24.127,44.937 24.649,43.404 24.649,43.404 C24.402,43.319 24.068,43.234 23.647,43.149 C23.226,43.064 22.628,42.951 22.045,42.908 C22.045,42.908 22.081,41.001 22.081,41.001 C22.081,41.001 20.017,40.996 20.017,40.996 C20.017,40.996 19.952,42.890 19.952,42.890 C19.458,42.958 18.996,43.131 18.637,43.280 C18.278,43.429 18.088,43.664 17.863,43.877 C17.639,44.090 17.473,44.326 17.367,44.586 C17.260,44.845 17.207,45.116 17.207,45.397 C17.207,45.763 17.294,46.076 17.468,46.335 C17.642,46.595 17.872,46.814 18.158,46.993 C18.444,47.172 18.764,47.323 19.118,47.447 C19.472,47.570 19.833,47.683 20.204,47.785 C20.585,47.887 20.922,47.983 21.214,48.072 C21.506,48.162 21.747,48.253 21.938,48.347 C22.129,48.441 22.275,48.545 22.376,48.660 C22.477,48.775 22.528,48.913 22.528,49.075 C22.528,49.330 22.401,49.529 22.149,49.669 C21.896,49.810 21.427,49.880 20.743,49.880 C20.137,49.880 19.561,49.820 19.017,49.701 C18.472,49.582 18.004,49.450 17.611,49.305 C17.611,49.305 16.887,50.774 16.887,50.774 C17.134,50.868 17.513,50.984 18.023,51.125 C18.534,51.266 19.199,51.361 20.019,51.412 C20.019,51.412 20.050,52.991 20.050,52.991 Z" id="path-3" class="cls-5" fill-rule="evenodd"/>
  </g>
</svg>
