<svg xmlns="http://www.w3.org/2000/svg" xmlns:xlink="http://www.w3.org/1999/xlink" preserveAspectRatio="xMidYMid" width="55" height="55" viewBox="0 0 55 55">
  <defs>
    <style>

      .cls-3 {
        fill: #99cc33;
      }

      .cls-4 {
        fill: #999999;
      }
    </style>
  </defs>
  <g id="clock">
    <path d="M27.391,54.812 C12.263,54.812 -0.000,42.542 -0.000,27.406 C-0.000,12.270 12.263,-0.000 27.391,-0.000 C42.518,-0.000 54.781,12.270 54.781,27.406 C54.781,42.542 42.518,54.812 27.391,54.812 ZM27.391,5.469 C15.283,5.469 5.469,15.290 5.469,27.406 C5.469,39.522 15.283,49.343 27.391,49.343 C39.498,49.343 49.312,39.522 49.312,27.406 C49.312,15.290 39.498,5.469 27.391,5.469 ZM47.047,29.031 C47.047,29.031 44.016,29.031 44.016,29.031 C43.489,29.031 43.062,28.604 43.062,28.078 C43.062,27.552 43.489,27.125 44.016,27.125 C44.016,27.125 47.047,27.125 47.047,27.125 C47.573,27.125 48.000,27.552 48.000,28.078 C48.000,28.604 47.573,29.031 47.047,29.031 ZM41.360,41.063 C41.360,41.063 39.736,39.416 39.736,39.416 C39.494,39.171 39.497,38.775 39.742,38.532 C39.988,38.290 40.384,38.293 40.626,38.539 C40.626,38.539 42.250,40.185 42.250,40.185 C42.493,40.431 42.490,40.826 42.244,41.069 C41.998,41.311 41.603,41.309 41.360,41.063 ZM40.215,15.213 C39.956,15.442 39.562,15.418 39.333,15.159 C39.104,14.901 39.128,14.506 39.386,14.277 C39.386,14.277 41.118,12.744 41.118,12.744 C41.377,12.516 41.772,12.540 42.000,12.798 C42.229,13.057 42.205,13.452 41.947,13.680 C41.947,13.680 40.215,15.213 40.215,15.213 ZM26.953,47.937 C26.427,47.937 26.000,47.511 26.000,46.984 C26.000,46.984 26.000,43.953 26.000,43.953 C26.000,43.426 26.427,43.000 26.953,43.000 C27.479,43.000 27.906,43.426 27.906,43.953 C27.906,43.953 27.906,46.984 27.906,46.984 C27.906,47.511 27.479,47.937 26.953,47.937 ZM26.953,11.875 C26.427,11.875 26.000,11.448 26.000,10.922 C26.000,10.922 26.000,7.890 26.000,7.890 C26.000,7.364 26.427,6.937 26.953,6.937 C27.479,6.937 27.906,7.364 27.906,7.890 C27.906,7.890 27.906,10.922 27.906,10.922 C27.906,11.448 27.479,11.875 26.953,11.875 ZM13.298,41.380 C13.040,41.608 12.645,41.585 12.416,41.326 C12.187,41.068 12.211,40.672 12.470,40.444 C12.470,40.444 14.201,38.911 14.201,38.911 C14.460,38.682 14.855,38.706 15.084,38.965 C15.312,39.223 15.288,39.618 15.030,39.847 C15.030,39.847 13.298,41.380 13.298,41.380 ZM13.780,15.596 C13.780,15.596 12.156,13.950 12.156,13.950 C11.914,13.704 11.917,13.308 12.162,13.066 C12.408,12.823 12.804,12.826 13.046,13.072 C13.046,13.072 14.670,14.718 14.670,14.718 C14.913,14.964 14.910,15.360 14.664,15.602 C14.418,15.845 14.023,15.842 13.780,15.596 ZM10.984,29.031 C10.984,29.031 7.953,29.031 7.953,29.031 C7.427,29.031 7.000,28.604 7.000,28.078 C7.000,27.552 7.427,27.125 7.953,27.125 C7.953,27.125 10.984,27.125 10.984,27.125 C11.511,27.125 11.937,27.552 11.937,28.078 C11.937,28.604 11.511,29.031 10.984,29.031 Z" id="path-1" class="cls-3" fill-rule="evenodd"/>
    <path d="M38.906,19.317 C38.906,19.317 32.394,26.401 32.394,26.401 C32.551,26.867 32.656,27.356 32.656,27.875 C32.656,30.429 30.586,32.500 28.031,32.500 C25.477,32.500 23.406,30.429 23.406,27.875 C23.406,26.977 23.673,26.145 24.116,25.436 C24.116,25.436 16.614,11.692 16.614,11.692 C16.198,10.500 18.088,10.781 18.088,10.781 C18.088,10.781 26.609,23.496 26.609,23.496 C27.059,23.349 27.532,23.250 28.031,23.250 C28.665,23.250 29.268,23.378 29.818,23.609 C29.818,23.609 36.255,16.921 36.255,16.921 C37.781,15.765 38.969,16.942 38.969,16.942 C39.807,18.296 38.906,19.317 38.906,19.317 Z" id="path-2" class="cls-4" fill-rule="evenodd"/>
  </g>
</svg>
