<svg xmlns="http://www.w3.org/2000/svg" xmlns:xlink="http://www.w3.org/1999/xlink" preserveAspectRatio="xMidYMid" width="62" height="57" viewBox="0 0 62 57">
  <defs>
    <style>

      .cls-3 {
        fill: #999999;
      }

      .cls-4 {
        fill: #99cc33;
      }
    </style>
  </defs>
  <g id="doccheck">
    <path d="M52.026,26.380 C52.026,26.380 50.074,29.476 50.074,29.476 C50.074,29.476 50.087,4.967 50.087,4.967 C50.087,4.967 5.050,4.967 5.050,4.967 C5.050,4.967 5.062,50.969 5.062,50.969 C5.062,50.969 33.579,50.969 33.579,50.969 C33.579,50.969 37.843,55.969 37.843,55.969 C37.843,55.969 2.010,55.969 2.010,55.969 C0.906,55.969 0.010,55.073 0.010,53.969 C0.010,53.969 0.010,1.990 0.010,1.990 C0.010,0.885 0.906,-0.010 2.010,-0.010 C2.010,-0.010 53.062,-0.010 53.062,-0.010 C54.167,-0.010 55.062,0.885 55.062,1.990 C55.062,1.990 55.062,25.047 55.062,25.047 C54.088,25.089 53.055,25.460 52.026,26.380 ZM45.062,34.607 C45.062,34.607 44.710,34.937 44.710,34.937 C44.710,34.937 37.003,34.937 37.003,34.937 C37.003,34.937 33.547,30.969 33.547,30.969 C33.547,30.969 45.062,30.969 45.062,30.969 C45.062,30.969 45.062,34.607 45.062,34.607 ZM10.062,30.969 C10.062,30.969 29.685,30.969 29.685,30.969 C28.631,31.374 27.504,32.104 26.557,33.411 C26.557,33.411 26.036,34.041 25.461,34.937 C25.461,34.937 10.062,34.937 10.062,34.937 C10.062,34.937 10.062,30.969 10.062,30.969 ZM10.062,38.969 C10.062,38.969 23.964,38.969 23.964,38.969 C23.985,39.433 24.111,39.862 24.406,40.213 C24.406,40.213 26.729,42.937 26.729,42.937 C26.729,42.937 10.062,42.937 10.062,42.937 C10.062,42.937 10.062,38.969 10.062,38.969 ZM10.062,11.937 C10.062,11.937 26.079,11.937 26.079,11.937 C26.079,11.937 26.079,15.987 26.079,15.987 C26.079,15.987 10.062,15.987 10.062,15.987 C10.062,15.987 10.062,11.937 10.062,11.937 ZM45.062,26.937 C45.062,26.937 10.062,26.937 10.062,26.937 C10.062,26.937 10.062,22.969 10.062,22.969 C10.062,22.969 45.062,22.969 45.062,22.969 C45.062,22.969 45.062,26.937 45.062,26.937 Z" id="path-1" class="cls-3" fill-rule="evenodd"/>
    <path d="M60.635,33.477 C60.635,33.477 47.576,52.126 47.576,52.126 C47.578,52.961 47.189,53.784 46.453,54.299 C46.453,54.299 45.670,54.847 45.670,54.847 C45.670,54.847 45.630,54.905 45.630,54.905 C45.083,55.685 44.192,56.071 43.307,56.018 C42.421,56.071 41.530,55.685 40.984,54.905 C40.984,54.905 40.917,54.828 40.917,54.828 C40.917,54.828 40.161,54.299 40.161,54.299 C39.626,53.925 39.284,53.385 39.132,52.800 C39.132,52.800 27.794,39.914 27.794,39.914 C26.958,38.719 27.248,37.073 28.443,36.236 C28.443,36.236 30.234,34.982 30.234,34.982 C31.428,34.145 33.075,34.435 33.912,35.630 C33.912,35.630 42.876,45.818 42.876,45.818 C42.876,45.818 54.517,29.194 54.517,29.194 C55.354,27.999 57.001,27.709 58.195,28.545 C58.195,28.545 59.987,29.799 59.987,29.799 C61.181,30.636 61.471,32.283 60.635,33.477 Z" id="path-2" class="cls-4" fill-rule="evenodd"/>
  </g>
</svg>
