<svg xmlns="http://www.w3.org/2000/svg" xmlns:xlink="http://www.w3.org/1999/xlink" preserveAspectRatio="xMidYMid" width="61" height="100" viewBox="0 0 61 100">
  <defs>
    <style>

      .cls-3 {
        fill: #999999;
      }

      .cls-4 {
        fill: #cccccc;
      }

      .cls-5 {
        fill: #91c123;
      }
    </style>
  </defs>
  <g id="mobile">
    <path d="M53.000,99.056 C53.000,99.056 8.010,99.056 8.010,99.056 C3.592,99.056 0.010,95.474 0.010,91.056 C0.010,91.056 0.010,8.015 0.010,8.015 C0.010,3.597 3.592,0.016 8.010,0.016 C8.010,0.016 53.000,0.016 53.000,0.016 C57.418,0.016 61.000,3.597 61.000,8.015 C61.000,8.015 61.000,91.056 61.000,91.056 C61.000,95.474 57.418,99.056 53.000,99.056 ZM29.594,96.000 C32.079,96.000 34.094,93.985 34.094,91.500 C34.094,89.015 32.079,87.000 29.594,87.000 C27.108,87.000 25.094,89.015 25.094,91.500 C25.094,93.985 27.108,96.000 29.594,96.000 ZM42.094,6.516 C42.094,5.678 41.415,5.000 40.578,5.000 C40.578,5.000 22.380,5.000 22.380,5.000 C21.543,5.000 20.864,5.678 20.864,6.516 C20.864,6.516 20.864,6.547 20.864,6.547 C20.864,7.384 21.543,8.062 22.380,8.062 C22.380,8.062 40.578,8.062 40.578,8.062 C41.415,8.062 42.094,7.384 42.094,6.547 C42.094,6.547 42.094,6.516 42.094,6.516 ZM55.000,18.000 C55.000,14.686 52.314,12.000 49.000,12.000 C49.000,12.000 11.000,12.000 11.000,12.000 C7.686,12.000 5.000,14.686 5.000,18.000 C5.000,18.000 5.000,78.031 5.000,78.031 C5.000,81.345 7.686,84.031 11.000,84.031 C11.000,84.031 49.000,84.031 49.000,84.031 C52.314,84.031 55.000,81.345 55.000,78.031 C55.000,78.031 55.000,18.000 55.000,18.000 Z" id="path-1" class="cls-3" fill-rule="evenodd"/>
    <path d="M10.984,78.031 C10.984,78.031 10.984,71.016 10.984,71.016 C10.984,71.016 49.000,71.016 49.000,71.016 C49.000,71.016 49.000,78.031 49.000,78.031 C49.000,78.031 10.984,78.031 10.984,78.031 ZM10.984,58.015 C10.984,58.015 49.000,58.015 49.000,58.015 C49.000,58.015 49.000,65.031 49.000,65.031 C49.000,65.031 10.984,65.031 10.984,65.031 C10.984,65.031 10.984,58.015 10.984,58.015 ZM10.984,45.015 C10.984,45.015 49.000,45.015 49.000,45.015 C49.000,45.015 49.000,52.031 49.000,52.031 C49.000,52.031 10.984,52.031 10.984,52.031 C10.984,52.031 10.984,45.015 10.984,45.015 Z" id="path-2" class="cls-4" fill-rule="evenodd"/>
    <rect id="rect-1" class="cls-5" x="8" y="15" width="43" height="24"/>
  </g>
</svg>
