<svg xmlns="http://www.w3.org/2000/svg" xmlns:xlink="http://www.w3.org/1999/xlink" preserveAspectRatio="xMidYMid" width="65" height="59" viewBox="0 0 65 59">
  <defs>
    <style>

      .cls-3 {
        fill: #333333;
        fill-opacity: 0.47;
      }

      .cls-4 {
        fill: #cccccc;
      }

      .cls-5 {
        fill: #99cc33;
      }
    </style>
  </defs>
  <g id="monitor">
    <path d="M61.000,46.021 C61.000,46.021 3.990,46.021 3.990,46.021 C1.780,46.021 -0.011,44.230 -0.011,42.021 C-0.011,42.021 -0.011,4.000 -0.011,4.000 C-0.011,1.791 1.780,-0.000 3.990,-0.000 C3.990,-0.000 61.000,-0.000 61.000,-0.000 C63.209,-0.000 65.000,1.791 65.000,4.000 C65.000,4.000 65.000,42.021 65.000,42.021 C65.000,44.230 63.209,46.021 61.000,46.021 ZM32.187,44.187 C32.981,44.187 33.625,43.544 33.625,42.750 C33.625,41.956 32.981,41.312 32.187,41.312 C31.394,41.312 30.750,41.956 30.750,42.750 C30.750,43.544 31.394,44.187 32.187,44.187 ZM62.000,4.969 C62.000,3.864 61.104,2.969 60.000,2.969 C60.000,2.969 5.000,2.969 5.000,2.969 C3.895,2.969 3.000,3.864 3.000,4.969 C3.000,4.969 3.000,36.979 3.000,36.979 C3.000,38.084 3.895,38.979 5.000,38.979 C5.000,38.979 60.000,38.979 60.000,38.979 C61.104,38.979 62.000,38.084 62.000,36.979 C62.000,36.979 62.000,4.969 62.000,4.969 ZM26.980,53.037 C26.980,53.037 26.980,49.014 26.980,49.014 C26.980,49.014 37.985,49.010 37.985,49.010 C37.985,49.010 37.999,52.980 37.999,52.980 C37.957,55.741 40.932,56.042 40.932,56.042 C40.932,56.042 43.960,56.036 43.960,56.036 C43.960,56.036 43.964,59.002 43.964,59.002 C43.964,59.002 21.010,58.994 21.010,58.994 C21.010,58.994 20.991,56.015 20.991,56.015 C20.991,56.015 24.055,56.021 24.055,56.021 C27.119,56.021 26.980,53.037 26.980,53.037 Z" id="path-1" class="cls-3" fill-rule="evenodd"/>
    <path d="M6.000,6.031 C6.000,6.031 59.000,6.031 59.000,6.031 C59.000,6.031 59.010,12.000 59.010,12.000 C59.010,12.000 6.000,12.000 6.000,12.000 C6.000,12.000 6.000,6.031 6.000,6.031 ZM30.000,25.969 C30.000,25.969 6.000,25.969 6.000,25.969 C6.000,25.969 6.000,15.000 6.000,15.000 C6.000,15.000 30.000,15.000 30.000,15.000 C30.000,15.000 30.000,25.969 30.000,25.969 ZM59.010,36.000 C59.010,36.000 6.000,36.000 6.000,36.000 C6.000,36.000 6.000,29.031 6.000,29.031 C6.000,29.031 59.000,29.031 59.000,29.031 C59.000,29.031 59.010,36.000 59.010,36.000 Z" id="path-2" class="cls-4" fill-rule="evenodd"/>
    <rect id="rect-1" class="cls-5" x="34" y="15" width="25" height="10"/>
  </g>
</svg>
