<svg xmlns="http://www.w3.org/2000/svg" xmlns:xlink="http://www.w3.org/1999/xlink" preserveAspectRatio="xMidYMid" width="58" height="58" viewBox="0 0 58 58">
  <defs>
    <style>

      .cls-3 {
        fill: #999999;
      }

      .cls-4 {
        fill: #99cc33;
      }
    </style>
  </defs>
  <g id="notecheck">
    <path d="M41.932,12.987 C41.932,11.721 40.905,9.979 39.638,9.979 C39.638,9.979 32.828,9.979 32.828,9.979 C33.335,10.516 33.712,12.242 33.915,12.974 C33.915,12.974 12.110,12.974 12.110,12.974 C12.312,12.242 12.689,10.516 13.197,9.979 C13.197,9.979 6.952,9.979 6.952,9.979 C5.685,9.979 4.007,11.721 4.007,12.987 C4.007,12.987 4.007,51.238 4.007,51.238 C4.007,52.505 5.685,53.961 6.952,53.961 C6.952,53.961 26.938,53.961 26.938,53.961 C26.938,53.961 26.938,57.968 26.938,57.968 C26.938,57.968 4.615,57.968 4.615,57.968 C2.082,57.968 0.009,55.914 0.009,53.381 C0.009,53.381 0.009,11.153 0.009,11.153 C0.009,8.620 2.082,5.945 4.615,5.945 C4.615,5.945 16.615,5.945 16.615,5.945 C16.762,2.482 19.609,0.002 23.109,0.002 C26.609,0.002 29.456,2.482 29.604,5.945 C29.604,5.945 41.761,5.945 41.761,5.945 C44.295,5.945 46.063,8.620 46.063,11.153 C46.063,11.153 46.063,22.881 46.063,22.881 C46.063,22.881 41.932,22.881 41.932,22.881 C41.932,22.881 41.932,12.987 41.932,12.987 ZM22.941,3.361 C21.351,3.361 20.063,4.649 20.063,6.239 C20.063,7.828 21.351,9.117 22.941,9.117 C24.530,9.117 25.819,7.828 25.819,6.239 C25.819,4.649 24.530,3.361 22.941,3.361 Z" id="path-1" class="cls-3" fill-rule="evenodd"/>
    <path d="M33.510,53.610 C33.510,53.610 18.600,38.930 18.600,38.930 C18.600,38.930 24.189,33.087 24.189,33.087 C24.189,33.087 33.702,41.512 33.702,41.512 C33.702,41.512 52.618,22.295 52.618,22.295 C52.618,22.295 57.969,27.646 57.969,27.646 C57.969,27.646 33.510,53.610 33.510,53.610 Z" id="path-2" class="cls-4" fill-rule="evenodd"/>
  </g>
</svg>
