<svg xmlns="http://www.w3.org/2000/svg" xmlns:xlink="http://www.w3.org/1999/xlink" preserveAspectRatio="xMidYMid" width="63" height="59" viewBox="0 0 63 59">
  <defs>
    <style>

      .cls-3 {
        fill: #99cc33;
      }

      .cls-4 {
        fill: #999999;
      }
    </style>
  </defs>
  <g id="group-16">
    <path d="M10.062,14.906 C10.062,14.906 33.657,14.906 33.657,14.906 C33.657,14.906 29.677,18.955 29.677,18.955 C29.677,18.955 10.062,18.955 10.062,18.955 C10.062,18.955 10.062,14.906 10.062,14.906 ZM10.062,22.937 C10.062,22.937 25.762,22.937 25.762,22.937 C25.762,22.937 22.133,26.629 22.133,26.629 C22.133,26.629 22.070,26.732 21.963,26.906 C21.963,26.906 10.062,26.906 10.062,26.906 C10.062,26.906 10.062,22.937 10.062,22.937 ZM10.062,30.937 C10.062,30.937 19.499,30.937 19.499,30.937 C18.744,32.175 17.907,33.553 17.090,34.906 C17.090,34.906 10.062,34.906 10.062,34.906 C10.062,34.906 10.062,30.937 10.062,30.937 ZM44.246,30.937 C44.246,30.937 45.037,30.937 45.037,30.937 C45.037,30.937 45.037,34.906 45.037,34.906 C45.037,34.906 40.267,34.906 40.267,34.906 C40.267,34.906 44.246,30.937 44.246,30.937 ZM40.509,7.935 C40.509,7.935 5.050,7.935 5.050,7.935 C5.050,7.935 5.062,53.937 5.062,53.937 C5.062,53.937 50.062,53.937 50.062,53.937 C50.062,53.937 50.078,25.120 50.078,25.120 C50.078,25.120 55.062,20.148 55.062,20.148 C55.062,20.148 55.062,56.937 55.062,56.937 C55.062,58.042 54.167,58.937 53.062,58.937 C53.062,58.937 2.010,58.937 2.010,58.937 C0.906,58.937 0.010,58.042 0.010,56.937 C0.010,56.937 0.010,4.958 0.010,4.958 C0.010,3.854 0.906,2.958 2.010,2.958 C2.010,2.958 45.402,2.958 45.402,2.958 C45.402,2.958 40.509,7.935 40.509,7.935 Z" id="path-1" class="cls-4" fill-rule="evenodd"/>
    <path d="M60.796,11.089 C60.796,11.089 58.409,13.467 58.409,13.467 C58.409,13.467 49.257,4.315 49.257,4.315 C49.257,4.315 51.183,2.389 51.183,2.389 C51.183,2.389 55.586,-2.236 60.808,1.394 C60.808,1.394 65.141,7.213 60.796,11.089 ZM32.835,38.945 C32.835,38.945 23.731,29.841 23.731,29.841 C23.731,29.841 46.846,6.727 46.846,6.727 C46.846,6.727 55.947,15.921 55.947,15.921 C55.947,15.921 32.835,38.945 32.835,38.945 ZM29.919,41.849 C29.919,41.849 18.792,47.466 18.792,47.466 C18.792,47.466 15.211,43.885 15.211,43.885 C15.211,43.885 20.927,32.646 20.927,32.646 C20.927,32.646 21.179,32.394 21.179,32.394 C21.179,32.394 30.277,41.493 30.277,41.493 C30.277,41.493 29.919,41.849 29.919,41.849 ZM17.399,48.169 C17.399,48.169 11.524,51.134 11.524,51.134 C11.524,51.134 14.505,45.274 14.505,45.274 C14.505,45.274 17.399,48.169 17.399,48.169 Z" id="path-2" class="cls-3" fill-rule="evenodd"/>
  </g>
</svg>
