<?xml version="1.0" encoding="utf-8"?>
<!-- Generator: Adobe Illustrator 19.0.0, SVG Export Plug-In . SVG Version: 6.00 Build 0)  -->
<svg version="1.1" id="Layer_1" xmlns="http://www.w3.org/2000/svg" xmlns:xlink="http://www.w3.org/1999/xlink" x="0px" y="0px"
	 viewBox="-286 378 38 38" style="enable-background:new -286 378 38 38;" xml:space="preserve">
<style type="text/css">
	.st0{fill:#FFFFFF;stroke:#A9A9A9;stroke-width:2;stroke-linejoin:round;}
	.st1{fill:#9C9C9C;}
</style>
<circle id="circle-1" class="st0" cx="-267" cy="396" r="14"/>
<path id="path-1" class="st1" d="M-255.9,396.5h-3.3c-0.2,0-0.4-0.2-0.4-0.4v-0.3c0-0.2,0.2-0.4,0.4-0.4h3.3c0.2,0,0.4,0.2,0.4,0.4
	v0.3C-255.5,396.4-255.7,396.5-255.9,396.5z M-267.8,398.3c-1,0-1.9-0.8-1.9-1.9c0-0.6,1.7-2.4,1.3-2c2.5-2.2,10.3-7.1,10.3-7.7
	c0,1-5.6,7.4-7.8,10.5C-265.7,396.8-267.3,398.3-267.8,398.3z M-266.8,388.5h-0.3c-0.2,0-0.4-0.2-0.4-0.4v-3.3
	c0-0.2,0.2-0.4,0.4-0.4h0.3c0.2,0,0.4,0.2,0.4,0.4v3.3C-266.5,388.3-266.6,388.5-266.8,388.5z M-274.9,396.5h-3.3
	c-0.2,0-0.4-0.2-0.4-0.4v-0.3c0-0.2,0.2-0.4,0.4-0.4h3.3c0.2,0,0.4,0.2,0.4,0.4v0.3C-274.5,396.4-274.7,396.5-274.9,396.5z
	 M-267.1,403.5h0.3c0.2,0,0.4,0.2,0.4,0.4v3.3c0,0.2-0.2,0.4-0.4,0.4h-0.3c-0.2,0-0.4-0.2-0.4-0.4v-3.3
	C-267.5,403.7-267.3,403.5-267.1,403.5z"/>
</svg>
