<?xml version="1.0" encoding="utf-8"?>
<!-- Generator: Adobe Illustrator 19.0.0, SVG Export Plug-In . SVG Version: 6.00 Build 0)  -->
<svg version="1.1" id="Layer_1" xmlns="http://www.w3.org/2000/svg" xmlns:xlink="http://www.w3.org/1999/xlink" x="0px" y="0px"
	 viewBox="-286 378 38 38" style="enable-background:new -286 378 38 38;" xml:space="preserve">
<style type="text/css">
	.st0{fill:#FFFFFF;stroke:#A9A9A9;stroke-width:2;stroke-linejoin:round;}
	.st1{fill:#9C9C9C;}
</style>
<circle id="circle-1" class="st0" cx="-267" cy="397" r="14"/>
<path id="path-1" class="st1" d="M-262.8,403.9c-0.7,0.5-1.6,0.9-2.6,1v2h-3v-1.9c-0.3,0-0.7-0.1-1-0.1c-0.6-0.1-1.1-0.2-1.5-0.3
	c-0.4-0.1-0.8-0.3-1.1-0.4c-0.3-0.1-0.6-0.3-0.8-0.4l1-2.8c0.5,0.3,1.1,0.5,1.8,0.7c0.7,0.2,1.5,0.3,2.6,0.3c0.5,0,0.9,0,1.3-0.1
	c0.3-0.1,0.6-0.2,0.8-0.3c0.2-0.1,0.3-0.3,0.4-0.5c0.1-0.2,0.1-0.4,0.1-0.7c0-0.5-0.2-1-0.7-1.3c-0.5-0.3-1.3-0.7-2.5-1.1
	c-0.5-0.2-1-0.4-1.6-0.6c-0.5-0.2-1-0.5-1.4-0.9c-0.4-0.4-0.8-0.8-1-1.3c-0.3-0.5-0.4-1.1-0.4-1.9c0-0.7,0.1-1.4,0.4-2
	c0.3-0.6,0.7-1.1,1.2-1.5c0.5-0.4,1.1-0.7,1.8-1c0.2-0.1,0.5-0.1,0.7-0.1v-1.8h3v1.7c0.6,0.1,1.1,0.1,1.5,0.3
	c0.8,0.2,1.4,0.5,1.9,0.8l-1,2.8c-0.4-0.2-0.9-0.4-1.5-0.6c-0.5-0.2-1.2-0.3-2-0.3c-0.9,0-1.5,0.1-1.8,0.4c-0.4,0.2-0.6,0.6-0.6,1.1
	c0,0.3,0.1,0.5,0.2,0.7c0.1,0.2,0.3,0.4,0.6,0.5c0.3,0.2,0.5,0.3,0.9,0.4c0.3,0.1,0.7,0.3,1.1,0.4c0.8,0.3,1.5,0.6,2.2,0.9
	c0.6,0.3,1.1,0.6,1.5,1c0.4,0.4,0.7,0.9,0.9,1.4c0.2,0.5,0.3,1.2,0.3,2C-261.2,402-261.7,403.1-262.8,403.9z"/>
</svg>
