<svg xmlns="http://www.w3.org/2000/svg" xmlns:xlink="http://www.w3.org/1999/xlink" preserveAspectRatio="xMidYMid" width="119" height="129" viewBox="0 0 119 129">
  <defs>
    <style>

      .cls-3 {
        fill: #999999;
      }

      .cls-4 {
        fill: #90c123;
      }
    </style>
  </defs>
  <g id="offlinesvg">
    <path d="M58.656,92.236 C63.121,92.236 66.897,89.290 68.148,85.236 C68.562,85.236 69.037,85.236 69.580,85.236 C70.011,85.236 70.482,85.236 70.901,85.236 C69.677,90.712 64.796,94.808 58.951,94.808 C56.570,94.808 54.355,94.118 52.474,92.943 C52.474,92.943 52.295,92.665 52.295,92.665 C52.295,92.665 52.437,90.094 52.437,90.094 C52.437,90.094 52.490,90.082 52.490,90.082 C54.185,91.427 56.324,92.236 58.656,92.236 ZM103.380,113.067 C103.380,113.067 42.155,113.067 42.155,113.067 C42.155,113.067 49.061,108.375 49.061,108.375 C52.154,109.548 55.495,110.219 59.000,110.219 C74.507,110.219 87.078,97.648 87.078,82.141 C87.078,66.633 74.507,54.062 59.000,54.062 C43.493,54.062 30.922,66.633 30.922,82.141 C30.922,84.146 31.141,86.100 31.541,87.987 C31.541,87.987 23.559,93.410 23.559,93.410 C23.559,93.410 23.559,60.379 23.559,60.379 C23.559,60.379 63.727,22.071 63.727,22.071 C63.754,22.070 63.781,22.070 63.808,22.070 C63.808,22.070 105.380,61.903 105.380,61.903 C105.380,61.903 105.380,111.067 105.380,111.067 C105.380,112.172 104.485,113.067 103.380,113.067 Z" id="path-1" class="cls-3" fill-rule="evenodd"/>
    <path d="M68.720,2.214 C68.792,2.292 68.840,2.383 68.908,2.464 C68.908,2.464 119.311,48.890 119.311,48.890 C119.311,48.890 109.890,59.118 109.890,59.118 C109.890,59.118 63.547,16.432 63.547,16.432 C63.547,16.432 17.204,59.118 17.204,59.118 C14.379,61.720 9.980,61.539 7.379,58.715 C4.777,55.890 4.958,51.491 7.782,48.890 C7.782,48.890 58.186,2.464 58.186,2.464 C58.254,2.383 58.301,2.292 58.373,2.214 C59.482,1.010 60.921,0.317 62.422,0.085 C62.531,0.066 62.639,0.053 62.749,0.040 C63.015,0.011 63.279,-0.006 63.547,-0.004 C63.815,-0.006 64.078,0.011 64.345,0.040 C64.454,0.053 64.562,0.066 64.671,0.085 C66.172,0.317 67.611,1.010 68.720,2.214 ZM35.607,82.129 C35.607,69.210 46.080,58.737 59.000,58.737 C71.919,58.737 82.393,69.210 82.393,82.129 C82.393,95.049 71.919,105.522 59.000,105.522 C55.370,105.522 51.947,104.671 48.881,103.196 C48.881,103.196 14.274,126.710 14.274,126.710 C10.103,129.544 4.425,128.460 1.592,124.290 C-1.242,120.119 -0.158,114.441 4.012,111.608 C4.012,111.608 36.758,89.358 36.758,89.358 C36.018,87.080 35.607,84.654 35.607,82.129 ZM59.000,98.514 C68.049,98.514 75.384,91.183 75.384,82.141 C75.384,73.098 68.049,65.767 59.000,65.767 C49.951,65.767 42.616,73.098 42.616,82.141 C42.616,91.183 49.951,98.514 59.000,98.514 ZM29.231,105.054 C27.740,102.859 24.751,102.288 22.557,103.780 C22.557,103.780 7.483,114.022 7.483,114.022 C5.288,115.513 4.718,118.501 6.209,120.696 C7.700,122.891 10.689,123.461 12.883,121.970 C12.883,121.970 27.957,111.728 27.957,111.728 C30.152,110.237 30.722,107.249 29.231,105.054 Z" id="path-2" class="cls-4" fill-rule="evenodd"/>
  </g>
</svg>
