<svg xmlns="http://www.w3.org/2000/svg" xmlns:xlink="http://www.w3.org/1999/xlink" preserveAspectRatio="xMidYMid" width="67" height="57" viewBox="0 0 67 57">
  <defs>
    <style>

      .cls-3 {
        fill: #99cc33;
      }

      .cls-4 {
        fill: #999999;
      }
    </style>
  </defs>
  <g id="peoplesvg">
    <path d="M44.629,33.773 C44.629,33.773 47.396,37.608 47.396,37.608 C47.396,37.608 44.646,43.760 44.646,43.760 C44.646,43.760 41.519,37.555 41.519,37.555 C41.519,37.555 43.812,32.683 43.812,32.683 C43.812,32.683 41.896,31.261 41.896,31.261 C43.250,28.869 44.493,28.732 44.493,28.732 C45.940,30.001 46.758,31.159 46.758,31.159 C45.430,31.729 45.259,33.092 45.259,33.092 C45.259,33.092 44.629,33.773 44.629,33.773 ZM18.260,51.023 C13.288,44.748 12.342,31.321 12.342,31.321 C12.062,31.400 11.756,31.512 11.439,31.639 C11.439,31.639 12.342,30.776 12.342,30.776 C12.342,30.776 13.960,41.027 18.064,46.987 C18.064,46.987 23.675,35.884 23.786,30.912 C23.786,30.912 23.910,31.104 24.094,31.389 C24.437,41.279 18.260,51.023 18.260,51.023 Z" id="path-1" class="cls-3" fill-rule="evenodd"/>
    <path d="M66.161,57.112 C66.161,57.112 0.015,57.112 0.015,57.112 C0.015,57.112 0.720,39.827 1.853,37.587 C1.853,37.587 7.723,32.593 11.316,31.580 C11.316,31.580 10.618,46.944 17.912,53.380 C17.912,53.380 26.694,44.218 25.505,30.925 C25.505,30.925 26.110,32.572 28.554,32.002 C28.554,32.002 36.455,27.506 36.455,27.506 C36.455,27.506 44.825,48.403 44.825,48.403 C44.825,48.403 51.849,27.642 51.849,27.642 C51.849,27.642 63.293,33.228 63.293,33.228 C63.293,33.228 66.544,48.342 66.161,57.112 ZM51.268,18.085 C51.268,18.085 50.647,22.268 49.670,24.100 C49.670,24.100 46.187,27.940 43.539,27.098 C43.539,27.098 39.665,26.297 38.226,23.147 C38.226,23.147 37.332,21.120 36.455,17.698 C36.455,17.698 34.769,18.311 34.003,14.428 C34.003,14.428 32.845,10.690 35.093,11.567 C35.093,11.567 34.242,7.412 35.502,5.301 C35.502,5.301 37.520,0.345 44.084,-0.012 C44.084,-0.012 51.849,0.532 52.488,5.982 C52.488,5.982 52.565,7.318 52.394,11.431 C52.394,11.431 54.710,11.984 54.199,15.535 C54.199,15.535 54.300,17.199 51.268,18.085 ZM23.120,29.364 C23.120,29.364 20.649,31.990 18.077,32.365 C18.077,32.365 15.876,32.011 13.194,29.372 C13.194,29.372 13.134,27.702 13.160,25.190 C13.160,25.190 11.392,24.909 8.131,26.416 C8.131,26.416 8.131,16.472 8.131,16.472 C8.131,16.472 8.034,6.569 19.018,5.709 C19.018,5.709 28.381,6.518 29.139,16.514 C29.139,16.514 29.139,26.280 29.139,26.280 C29.139,26.280 26.288,25.167 23.215,24.997 C23.215,24.997 23.120,29.364 23.120,29.364 Z" id="path-2" class="cls-4" fill-rule="evenodd"/>
  </g>
</svg>
