<svg xmlns="http://www.w3.org/2000/svg" xmlns:xlink="http://www.w3.org/1999/xlink" preserveAspectRatio="xMidYMid" width="37" height="22" viewBox="0 0 37 22">
  <defs>
    <style>

      .cls-3 {
        fill: #99cc33;
      }

      .cls-4 {
        fill: #999999;
      }
    </style>
  </defs>
  <g id="return">
    <path d="M24.281,6.906 C22.055,6.906 20.250,8.711 20.250,10.937 C20.250,13.164 22.055,14.969 24.281,14.969 C24.281,14.969 29.000,14.969 29.000,14.969 C29.000,14.969 29.000,19.937 29.000,19.937 C29.000,21.042 28.105,21.937 27.000,21.937 C27.000,21.937 2.000,21.937 2.000,21.937 C0.895,21.937 -0.000,21.042 -0.000,19.937 C-0.000,19.937 -0.000,2.000 -0.000,2.000 C-0.000,0.895 0.895,-0.000 2.000,-0.000 C2.000,-0.000 27.000,-0.000 27.000,-0.000 C28.105,-0.000 29.000,0.895 29.000,2.000 C29.000,2.000 29.000,6.906 29.000,6.906 C29.000,6.906 24.281,6.906 24.281,6.906 Z" id="path-1" class="cls-3" fill-rule="evenodd"/>
    <path d="M36.229,10.937 C36.229,10.937 32.104,16.000 32.104,16.000 C32.104,16.000 32.104,14.000 32.104,14.000 C32.104,14.000 28.104,14.000 28.104,14.000 C28.104,14.000 28.104,13.989 28.104,13.989 C28.104,13.989 25.081,13.989 25.081,13.989 C23.424,13.989 22.080,12.583 22.080,10.926 C22.080,9.268 23.424,7.925 25.081,7.925 C25.081,7.925 31.299,7.925 31.299,7.925 C31.341,7.925 31.380,7.936 31.422,7.937 C31.422,7.937 31.979,7.937 31.979,7.937 C31.979,7.937 31.979,6.000 31.979,6.000 C31.979,6.000 36.229,10.937 36.229,10.937 ZM24.893,9.539 C24.150,9.539 23.548,10.141 23.548,10.884 C23.548,11.627 24.150,12.230 24.893,12.230 C25.637,12.230 26.239,11.627 26.239,10.884 C26.239,10.141 25.637,9.539 24.893,9.539 Z" id="path-2" class="cls-4" fill-rule="evenodd"/>
  </g>
</svg>
