<svg xmlns="http://www.w3.org/2000/svg" xmlns:xlink="http://www.w3.org/1999/xlink" preserveAspectRatio="xMidYMid" width="66" height="78" viewBox="0 0 66 78">
  <defs>
    <style>

      .cls-3 {
        fill: #999999;
      }

      .cls-4 {
        fill: #90c023;
      }
    </style>
  </defs>
  <g id="group-34">
    <path d="M58.031,77.035 C58.031,77.035 24.040,77.035 24.040,77.035 C19.622,77.035 16.040,73.453 16.040,69.035 C16.040,69.035 16.040,50.384 16.040,50.384 C17.340,50.745 18.679,51.041 20.052,51.269 C20.052,51.269 20.052,62.340 20.052,62.340 C20.052,64.918 22.141,67.007 24.719,67.007 C24.719,67.007 57.351,67.007 57.351,67.007 C59.929,67.007 62.019,64.918 62.019,62.340 C62.019,62.340 62.019,13.692 62.019,13.692 C62.019,11.114 59.929,9.024 57.351,9.024 C57.351,9.024 47.297,9.024 47.297,9.024 C41.773,5.295 34.559,3.031 26.659,3.031 C23.287,3.031 20.041,3.447 16.995,4.209 C18.346,1.703 20.994,-0.000 24.040,-0.000 C24.040,-0.000 58.031,-0.000 58.031,-0.000 C62.449,-0.000 66.031,3.582 66.031,8.000 C66.031,8.000 66.031,69.035 66.031,69.035 C66.031,73.453 62.449,77.035 58.031,77.035 ZM41.000,68.969 C39.308,68.969 38.000,70.277 38.000,71.969 C38.000,73.660 39.308,75.031 41.000,75.031 C42.691,75.031 44.062,73.660 44.062,71.969 C44.062,70.277 42.691,68.969 41.000,68.969 Z" id="path-1" class="cls-3" fill-rule="evenodd"/>
    <path d="M43.241,45.150 C44.749,49.961 49.125,56.583 49.125,56.583 C39.865,51.000 37.354,49.385 37.354,49.385 C35.789,48.743 33.563,48.732 32.453,48.774 C30.792,49.023 29.087,49.166 27.344,49.166 C12.236,49.166 -0.011,39.403 -0.011,27.359 C-0.011,15.315 12.236,5.885 27.344,5.885 C42.451,5.885 55.031,15.315 55.031,27.359 C55.031,34.711 50.330,41.199 43.241,45.150 ZM12.864,19.333 C13.166,19.011 13.588,18.849 14.130,18.849 C14.672,18.849 15.094,19.011 15.396,19.333 C15.698,19.657 15.849,20.214 15.849,21.006 C15.849,21.006 15.849,22.006 15.849,22.006 C15.849,22.006 19.100,22.006 19.100,22.006 C19.100,22.006 19.100,21.225 19.100,21.225 C19.100,19.454 18.678,18.094 17.834,17.145 C16.990,16.197 15.724,15.973 14.036,15.973 C12.348,15.973 11.082,16.197 10.238,17.145 C9.394,18.094 8.972,19.454 8.972,21.225 C8.972,22.267 9.138,22.840 9.472,23.611 C9.805,24.382 10.222,25.070 10.722,25.674 C11.223,26.279 11.759,26.836 12.332,27.347 C12.905,27.858 13.442,28.368 13.942,28.878 C14.442,29.389 14.859,29.931 15.193,30.504 C15.526,31.078 15.693,31.739 15.693,32.489 C15.693,33.281 15.531,33.833 15.208,34.146 C14.885,34.459 14.453,34.615 13.911,34.615 C13.369,34.615 12.937,34.459 12.614,34.146 C12.290,33.833 12.004,33.281 12.004,32.489 C12.004,32.489 12.067,31.020 12.067,31.020 C12.067,31.020 9.003,31.020 9.003,31.020 C9.003,31.020 9.003,32.520 9.003,32.520 C9.003,34.292 9.310,35.902 10.175,36.850 C11.040,37.798 12.317,38.022 14.005,38.022 C15.693,38.022 16.969,37.798 17.834,36.850 C18.699,35.902 19.132,34.042 19.132,32.270 C19.132,31.228 18.964,30.322 18.631,29.551 C18.298,28.780 17.881,28.092 17.381,27.487 C16.881,26.883 16.344,26.326 15.771,25.815 C15.198,25.305 14.661,24.794 14.161,24.283 C13.661,23.773 13.244,23.564 12.911,22.991 C12.577,22.418 12.410,21.756 12.410,21.006 C12.410,20.214 12.561,19.657 12.864,19.333 ZM34.980,15.973 C34.980,15.973 30.385,15.973 30.385,15.973 C30.385,15.973 27.603,31.176 27.603,31.176 C27.603,31.176 24.633,15.973 24.633,15.973 C24.633,15.973 20.031,16.000 20.031,16.000 C20.031,16.000 20.031,38.000 20.031,38.000 C20.031,38.000 23.039,38.022 23.039,38.022 C23.039,38.022 23.039,22.381 23.039,22.381 C23.039,22.381 25.852,38.022 25.852,38.022 C25.852,38.022 29.103,38.022 29.103,38.022 C29.103,38.022 31.979,22.162 31.979,22.162 C31.979,22.162 31.979,38.022 31.979,38.022 C31.979,38.022 34.980,38.022 34.980,38.022 C34.980,38.022 34.980,15.973 34.980,15.973 ZM39.904,19.333 C40.205,19.011 40.627,18.849 41.170,18.849 C41.711,18.849 42.133,19.011 42.436,19.333 C42.738,19.657 42.889,20.214 42.889,21.006 C42.889,21.006 42.889,22.006 42.889,22.006 C42.889,22.006 46.140,22.006 46.140,22.006 C46.140,22.006 46.140,21.225 46.140,21.225 C46.140,19.454 45.718,18.094 44.874,17.145 C44.030,16.197 42.764,15.973 41.076,15.973 C39.388,15.973 38.122,16.197 37.278,17.145 C36.434,18.094 36.012,19.454 36.012,21.225 C36.012,22.267 36.178,22.840 36.512,23.611 C36.845,24.382 37.262,25.070 37.762,25.674 C38.262,26.279 38.799,26.836 39.372,27.347 C39.945,27.858 40.482,28.368 40.982,28.878 C41.482,29.389 41.899,29.931 42.232,30.504 C42.566,31.078 42.733,31.739 42.733,32.489 C42.733,33.281 42.571,33.833 42.248,34.146 C41.925,34.459 41.492,34.615 40.951,34.615 C40.409,34.615 39.976,34.459 39.653,34.146 C39.330,33.833 39.044,33.281 39.044,32.489 C39.044,32.489 39.044,31.020 39.044,31.020 C39.044,31.020 35.980,31.020 35.980,31.020 C35.980,31.020 35.980,32.270 35.980,32.270 C35.980,34.042 36.350,35.902 37.215,36.850 C38.080,37.798 39.356,38.022 41.045,38.022 C42.733,38.022 44.009,37.798 44.874,36.850 C45.738,35.902 46.171,34.042 46.171,32.270 C46.171,31.228 46.004,30.322 45.671,29.551 C45.338,28.780 44.921,28.092 44.421,27.487 C43.921,26.883 43.384,26.326 42.811,25.815 C42.237,25.305 41.701,24.794 41.201,24.283 C40.701,23.773 40.284,23.564 39.950,22.991 C39.617,22.418 39.450,21.756 39.450,21.006 C39.450,20.214 39.601,19.657 39.904,19.333 Z" id="path-2" class="cls-4" fill-rule="evenodd"/>
  </g>
</svg>
